<?xml version="1.0" standalone="no"?>
<!DOCTYPE svg PUBLIC "-//W3C//DTD SVG 20010904//EN"
 "http://www.w3.org/TR/2001/REC-SVG-20010904/DTD/svg10.dtd">
<svg version="1.0" xmlns="http://www.w3.org/2000/svg"
 width="1024.000000pt" height="1024.000000pt" viewBox="0 0 1024.000000 1024.000000"
 preserveAspectRatio="xMidYMid meet">
<metadata>
Created by potrace 1.11, written by Peter Selinger 2001-2013
</metadata>
<g transform="translate(0.000000,1024.000000) scale(0.100000,-0.100000)"
fill="#000000" stroke="none">
<path d="M1679 8726 c-2 -2 -42 -6 -88 -10 -46 -3 -86 -8 -90 -10 -3 -2 -28
-6 -56 -10 -27 -3 -60 -8 -72 -11 -13 -3 -33 -7 -44 -10 -102 -22 -220 -65
-323 -116 -333 -166 -526 -476 -563 -905 -10 -116 -9 -4987 1 -5079 8 -78 15
-123 21 -145 2 -8 7 -30 10 -47 10 -60 57 -198 90 -263 143 -282 384 -461 740
-548 92 -23 179 -38 285 -49 97 -10 1871 -10 1973 0 528 53 872 255 1041 611
55 116 81 204 112 376 4 19 9 364 11 767 l4 732 -811 -2 -812 -2 -1 -600 -2
-600 -27 -56 c-30 -66 -81 -102 -166 -117 -29 -5 -193 -9 -365 -7 -276 1 -317
4 -357 20 -78 31 -120 84 -136 169 -3 17 -6 1053 -6 2301 -1 2530 -6 2343 67
2418 75 77 125 85 498 83 323 -3 347 -7 415 -70 78 -72 79 -79 80 -753 0 -318
1 -582 1 -588 1 -7 276 -9 808 -9 l808 2 0 728 c0 401 -4 756 -8 789 -46 335
-183 586 -413 756 -142 105 -378 195 -599 228 -38 6 -90 13 -115 17 -46 7
-1903 17 -1911 10z"/>
<path d="M6739 8726 c-2 -2 -38 -7 -79 -10 -408 -36 -731 -189 -922 -436 -110
-142 -183 -335 -215 -565 -10 -75 -11 -5122 0 -5190 62 -410 227 -667 537
-834 162 -87 344 -138 605 -168 85 -10 1874 -11 1965 -1 322 35 510 94 715
225 95 61 229 200 289 301 47 78 109 227 120 285 2 15 7 35 10 45 7 24 14 64
27 152 11 72 21 1439 12 1467 -4 9 -199 12 -813 11 l-809 0 0 -577 c0 -673 -2
-693 -85 -756 -59 -45 -137 -53 -476 -51 -289 3 -308 4 -363 25 -62 25 -95 60
-118 126 -12 33 -14 416 -14 2340 0 2204 1 2302 18 2345 30 74 94 127 173 146
56 13 626 12 676 -2 95 -25 143 -69 172 -159 15 -44 17 -126 19 -649 l2 -598
802 0 c441 0 806 2 810 5 11 7 9 1397 -1 1472 -4 28 -9 66 -12 85 -37 271
-166 511 -364 677 -138 116 -391 223 -605 257 -69 10 -113 17 -160 23 -51 7
-1909 15 -1916 9z"/>
</g>
</svg>
